<svg viewBox="0 0 100 100" fill="none" xmlns="http://www.w3.org/2000/svg">
  <!-- Outer Ring -->
  <circle cx="50" cy="50" r="48" fill="#005BAA" stroke="#FFFFFF" stroke-width="2" />

  <!-- Southern Cross Stars -->
  <path d="M50 75 L52 80 L57 80 L53 84 L55 89 L50 86 L45 89 L47 84 L43 80 L48 80 Z" fill="#FFFFFF" />
  <path d="M25 50 L27 55 L32 55 L28 59 L30 64 L25 61 L20 64 L22 59 L18 55 L23 55 Z" fill="#FFFFFF" />
  <path d="M50 20 L52 25 L57 25 L53 29 L55 34 L50 31 L45 34 L47 29 L43 25 L48 25 Z" fill="#FFFFFF" />
  <path d="M75 50 L77 55 L82 55 L78 59 L80 64 L75 61 L70 64 L72 59 L68 55 L73 55 Z" fill="#FFFFFF" />
  <path d="M58 58 L59 60.5 L61.5 60.5 L59.5 62.5 L60.5 65 L58 63.5 L55.5 65 L56.5 62.5 L54.5 60.5 L57 60.5 Z" fill="#FFFFFF" />

  <!-- ZK Typography -->
  <g transform="translate(0, 5) scale(0.9) translate(5, 0)">
    <path d="M32 35 L48 35 L48 40 L38 55 L48 55 L48 62 L30 62 L30 56 L41 41 L32 41 Z" fill="#FFFFFF" />
    <path d="M52 35 L60 35 L60 46 L68 35 L78 35 L68 49 L80 62 L70 62 L60 51 L60 62 L52 62 Z" fill="#FFFFFF" />
  </g>

  <!-- Glass Reflection -->
  <path d="M50 2 A 48 48 0 0 1 85 20 Q 50 40 15 20 A 48 48 0 0 1 50 2" fill="white" fill-opacity="0.2" />
</svg>
