<svg viewBox="0 0 100 100" fill="none" xmlns="http://www.w3.org/2000/svg">
  <!-- Outer Ring - Neutral dark with amber accent -->
  <circle cx="50" cy="50" r="48" fill="#1e293b" stroke="#f59e0b" stroke-width="3" />

  <!-- Inner accent ring -->
  <circle cx="50" cy="50" r="44" fill="none" stroke="#f59e0b" stroke-width="0.5" opacity="0.3" />

  <!-- ZK Typography -->
  <g transform="translate(0, 5) scale(0.9) translate(5, 0)">
    <path d="M32 35 L48 35 L48 40 L38 55 L48 55 L48 62 L30 62 L30 56 L41 41 L32 41 Z" fill="#f59e0b" />
    <path d="M52 35 L60 35 L60 46 L68 35 L78 35 L68 49 L80 62 L70 62 L60 51 L60 62 L52 62 Z" fill="#FFFFFF" />
  </g>

  <!-- Glass Reflection -->
  <path d="M50 2 A 48 48 0 0 1 85 20 Q 50 40 15 20 A 48 48 0 0 1 50 2" fill="white" fill-opacity="0.1" />
</svg>
